grf
version=1
nRows=19
nColumns=37
inDegrees=no
endheader
time	ground_force_1_vx	ground_force_1_vy	ground_force_1_vz	ground_force_1_px	ground_force_1_py	ground_force_1_pz	ground_moment_1_mx	ground_moment_1_my	ground_moment_1_mz	ground_force_2_vx	ground_force_2_vy	ground_force_2_vz	ground_force_2_px	ground_force_2_py	ground_force_2_pz	ground_moment_2_mx	ground_moment_2_my	ground_moment_2_mz	ground_force_3_vx	ground_force_3_vy	ground_force_3_vz	ground_force_3_px	ground_force_3_py	ground_force_3_pz	ground_moment_3_mx	ground_moment_3_my	ground_moment_3_mz	ground_force_4_vx	ground_force_4_vy	ground_force_4_vz	ground_force_4_px	ground_force_4_py	ground_force_4_pz	ground_moment_4_mx	ground_moment_4_my	ground_moment_4_mz
      0.00000000	      0.00000000	     -0.00000000	      0.00000000	      0.00000000	      0.00000000	      0.00000000	      0.00000000	      0.00000000	      0.00000000	     -7.51897001	     24.25539589	   -247.27320862	   -264.81381218	  -1029.91607195	      0.00000000	      0.00000000	      0.00000000	   3403.98579072	      8.18659215	    -21.23534465	   -525.37799072	   -337.71724723	   -769.85327942	      0.00000000	      0.00000000	     -0.00000000	  -4258.03876635	      0.00000000	     -0.00000000	      0.00000000	      0.00000000	      0.00000000	      0.00000000	      0.00000000	      0.00000000	      0.00000000
      0.01000000	      0.00000000	     -0.00000000	      0.00000000	      0.00000000	      0.00000000	      0.00000000	      0.00000000	      0.00000000	      0.00000000	     -7.90096903	     24.19120598	   -247.82507324	   -265.79572580	  -1030.71792100	      0.00000000	      0.00000000	      0.00000000	   3451.55861006	      8.61824516	    -21.37238959	   -523.43060303	   -337.86298590	   -770.89177710	      0.00000000	      0.00000000	     -0.00000000	  -4442.70840598	      0.00000000	     -0.00000000	      0.00000000	      0.00000000	      0.00000000	      0.00000000	      0.00000000	      0.00000000	      0.00000000
      0.02000000	      0.00000000	     -0.00000000	      0.00000000	      0.00000000	      0.00000000	      0.00000000	      0.00000000	      0.00000000	      0.00000000	     -8.14330578	     24.51323318	   -247.13578796	   -265.31997307	  -1028.11121219	      0.00000000	      0.00000000	      0.00000000	   3335.55541040	      8.25010118	    -20.77858997	   -521.42742920	   -337.47207133	   -771.33513128	      0.00000000	      0.00000000	     -0.00000000	  -4306.09432713	      0.00000000	     -0.00000000	      0.00000000	      0.00000000	      0.00000000	      0.00000000	      0.00000000	      0.00000000	      0.00000000
      0.03000000	      0.00000000	     -0.00000000	      0.00000000	      0.00000000	      0.00000000	      0.00000000	      0.00000000	      0.00000000	      0.00000000	     -7.63305616	     24.78109932	   -248.99185181	   -265.17919908	  -1030.84199565	      0.00000000	      0.00000000	      0.00000000	   3587.16638996	      8.23638065	    -20.94590068	   -521.38171387	   -337.02747097	   -771.00461401	      0.00000000	      0.00000000	     -0.00000000	  -4279.20958739	      0.00000000	     -0.00000000	      0.00000000	      0.00000000	      0.00000000	      0.00000000	      0.00000000	      0.00000000	      0.00000000
      0.04000000	      0.00000000	     -0.00000000	      0.00000000	      0.00000000	      0.00000000	      0.00000000	      0.00000000	      0.00000000	      0.00000000	     -7.95058966	     24.55000305	   -249.59916687	   -265.00540766	  -1030.51800454	      0.00000000	      0.00000000	      0.00000000	   3495.88671526	      8.09761151	    -20.89933275	   -519.03558350	   -336.92670588	   -771.09635856	      0.00000000	      0.00000000	     -0.00000000	  -4363.30984073	      0.00000000	     -0.00000000	      0.00000000	      0.00000000	      0.00000000	      0.00000000	      0.00000000	      0.00000000	      0.00000000
      0.05000000	      0.00000000	     -0.00000000	      0.00000000	      0.00000000	      0.00000000	      0.00000000	      0.00000000	      0.00000000	      0.00000000	     -7.77186728	     24.82808876	   -250.20709229	   -264.74619145	  -1031.19906947	      0.00000000	      0.00000000	      0.00000000	   3591.66922245	      8.03710568	    -20.40571665	   -517.40051270	   -336.43927602	   -771.67765931	      0.00000000	      0.00000000	     -0.00000000	  -4264.60309380	      0.00000000	     -0.00000000	      0.00000000	      0.00000000	      0.00000000	      0.00000000	      0.00000000	      0.00000000	      0.00000000
      0.06000000	      0.00000000	     -0.00000000	      0.00000000	      0.00000000	      0.00000000	      0.00000000	      0.00000000	      0.00000000	      0.00000000	     -8.01437187	     24.91709518	   -249.89520264	   -264.73346664	  -1030.61676123	      0.00000000	      0.00000000	      0.00000000	   3689.73259252	      7.52609028	    -20.23992795	   -515.29144287	   -336.19763372	   -771.87721878	      0.00000000	      0.00000000	     -0.00000000	  -4061.40674332	      0.00000000	     -0.00000000	      0.00000000	      0.00000000	      0.00000000	      0.00000000	      0.00000000	      0.00000000	      0.00000000
      0.07000000	      0.00000000	     -0.00000000	      0.00000000	      0.00000000	      0.00000000	      0.00000000	      0.00000000	      0.00000000	      0.00000000	     -8.16305828	     25.51608658	   -249.83621216	   -262.82509794	  -1030.02524420	      0.00000000	      0.00000000	      0.00000000	   3701.18524836	      7.37320485	    -20.14751117	   -514.30029297	   -335.73237454	   -771.31030261	      0.00000000	      0.00000000	     -0.00000000	  -4181.59298891	      0.00000000	     -0.00000000	      0.00000000	      0.00000000	      0.00000000	      0.00000000	      0.00000000	      0.00000000	      0.00000000
      0.08000000	      0.00000000	     -0.00000000	      0.00000000	      0.00000000	      0.00000000	      0.00000000	      0.00000000	      0.00000000	      0.00000000	     -8.53947067	     25.67928886	   -252.17047119	   -263.09372850	  -1031.15931993	      0.00000000	      0.00000000	      0.00000000	   3578.01187484	      7.05746142	    -20.00979676	   -512.39953613	   -335.28215778	   -771.56858184	      0.00000000	      0.00000000	     -0.00000000	  -4269.16883452	      0.00000000	     -0.00000000	      0.00000000	      0.00000000	      0.00000000	      0.00000000	      0.00000000	      0.00000000	      0.00000000
      0.09000000	      0.00000000	     -0.00000000	      0.00000000	      0.00000000	      0.00000000	      0.00000000	      0.00000000	      0.00000000	      0.00000000	     -8.75782204	     26.02037239	   -251.85482788	   -262.11024480	  -1029.34139167	      0.00000000	      0.00000000	      0.00000000	   3607.35955696	      6.89484899	    -19.93621886	   -510.55645752	   -334.38350289	   -771.54790214	      0.00000000	      0.00000000	     -0.00000000	  -4237.54325872	      0.00000000	     -0.00000000	      0.00000000	      0.00000000	      0.00000000	      0.00000000	      0.00000000	      0.00000000	      0.00000000
      0.10000000	      0.00000000	     -0.00000000	      0.00000000	      0.00000000	      0.00000000	      0.00000000	      0.00000000	      0.00000000	      0.00000000	     -8.80724049	     26.34262466	   -257.05401611	   -262.14373679	  -1033.90604959	      0.00000000	      0.00000000	      0.00000000	   3700.39213376	      6.54007786	    -19.79337940	   -509.83505249	   -333.67210499	   -771.68295942	      0.00000000	      0.00000000	     -0.00000000	  -4151.63593130	      0.00000000	     -0.00000000	      0.00000000	      0.00000000	      0.00000000	      0.00000000	      0.00000000	      0.00000000	      0.00000000
      0.11000000	      0.00000000	     -0.00000000	      0.00000000	      0.00000000	      0.00000000	      0.00000000	      0.00000000	      0.00000000	      0.00000000	     -8.69356537	     27.08004189	   -257.66244507	   -261.70120133	  -1029.90159554	      0.00000000	      0.00000000	      0.00000000	   3609.79346275	      6.89498868	    -20.18603194	   -510.01428223	   -333.41315496	   -772.31312164	      0.00000000	      0.00000000	     -0.00000000	  -4299.43395755	      0.00000000	     -0.00000000	      0.00000000	      0.00000000	      0.00000000	      0.00000000	      0.00000000	      0.00000000	      0.00000000
      0.12000000	      0.00000000	     -0.00000000	      0.00000000	      0.00000000	      0.00000000	      0.00000000	      0.00000000	      0.00000000	      0.00000000	     -9.10814285	     28.11631012	   -261.45004272	   -261.93039519	  -1033.02320409	      0.00000000	      0.00000000	      0.00000000	   3576.53494774	      6.54020705	    -20.20138416	   -509.09790039	   -333.26382158	   -773.16641287	      0.00000000	      0.00000000	     -0.00000000	  -4126.10945040	      0.00000000	     -0.00000000	      0.00000000	      0.00000000	      0.00000000	      0.00000000	      0.00000000	      0.00000000	      0.00000000
      0.13000000	      0.00000000	     -0.00000000	      0.00000000	      0.00000000	      0.00000000	      0.00000000	      0.00000000	      0.00000000	      0.00000000	     -9.41518021	     28.56211281	   -263.08877563	   -261.63822379	  -1030.31544168	      0.00000000	      0.00000000	      0.00000000	   3476.17900739	      6.80641430	    -19.79256689	   -510.67947388	   -332.47875044	   -772.30077298	      0.00000000	      0.00000000	     -0.00000000	  -4136.68214608	      0.00000000	     -0.00000000	      0.00000000	      0.00000000	      0.00000000	      0.00000000	      0.00000000	      0.00000000	      0.00000000
      0.14000000	      0.00000000	     -0.00000000	      0.00000000	      0.00000000	      0.00000000	      0.00000000	      0.00000000	      0.00000000	      0.00000000	     -9.26978016	     29.25097847	   -266.39398193	   -262.41317748	  -1031.79342363	      0.00000000	      0.00000000	      0.00000000	   3716.71743008	      6.76626744	    -20.16148817	   -508.71392822	   -332.61923292	   -772.99301495	      0.00000000	      0.00000000	     -0.00000000	  -4385.94838977	      0.00000000	     -0.00000000	      0.00000000	      0.00000000	      0.00000000	      0.00000000	      0.00000000	      0.00000000	      0.00000000
      0.15000000	      0.00000000	     -0.00000000	      0.00000000	      0.00000000	      0.00000000	      0.00000000	      0.00000000	      0.00000000	      0.00000000	     -9.43204975	     29.73674965	   -268.99600220	   -261.80900636	  -1031.85605507	      0.00000000	      0.00000000	      0.00000000	   3741.54329572	      6.59691066	    -19.72780667	   -509.12667847	   -331.39594923	   -772.88479701	      0.00000000	      0.00000000	     -0.00000000	  -4370.48544402	      0.00000000	     -0.00000000	      0.00000000	      0.00000000	      0.00000000	      0.00000000	      0.00000000	      0.00000000	      0.00000000
      0.16000000	      0.00000000	     -0.00000000	      0.00000000	      0.00000000	      0.00000000	      0.00000000	      0.00000000	      0.00000000	      0.00000000	     -9.97493362	     29.96289444	   -269.09326172	   -260.42727040	  -1030.41882370	      0.00000000	      0.00000000	      0.00000000	   3530.69070139	      6.16926159	    -20.28229004	   -507.60198975	   -330.63067028	   -773.97183613	      0.00000000	      0.00000000	     -0.00000000	  -4370.86964854	      0.00000000	     -0.00000000	      0.00000000	      0.00000000	      0.00000000	      0.00000000	      0.00000000	      0.00000000	      0.00000000
      0.17000000	      0.00000000	     -0.00000000	      0.00000000	      0.00000000	      0.00000000	      0.00000000	      0.00000000	      0.00000000	      0.00000000	    -10.10491180	     30.07787132	   -269.62951660	   -259.97674036	  -1031.14591782	      0.00000000	      0.00000000	      0.00000000	   3632.53161545	      5.56473273	    -19.83193637	   -508.93902588	   -329.74310424	   -773.42746318	      0.00000000	      0.00000000	     -0.00000000	  -4413.42820512	      0.00000000	     -0.00000000	      0.00000000	      0.00000000	      0.00000000	      0.00000000	      0.00000000	      0.00000000	      0.00000000
      0.18000000	      0.00000000	     -0.00000000	      0.00000000	      0.00000000	      0.00000000	      0.00000000	      0.00000000	      0.00000000	      0.00000000	    -10.41357803	     29.72848320	   -270.86132812	   -260.38710422	  -1032.99156337	      0.00000000	      0.00000000	      0.00000000	   3656.54915592	      5.05651304	    -19.48565337	   -509.85571289	   -328.76682383	   -773.81045052	      0.00000000	      0.00000000	     -0.00000000	  -4351.08841110	      0.00000000	     -0.00000000	      0.00000000	      0.00000000	      0.00000000	      0.00000000	      0.00000000	      0.00000000	      0.00000000
